<svg width="56" height="56" viewBox="0 0 56 56" fill="none" xmlns="http://www.w3.org/2000/svg">
<rect width="56" height="56" fill="#155E75"/>
<path fill-rule="evenodd" clip-rule="evenodd" d="M13 27.4695C13 23.39 14.6511 19.6961 17.3215 17.0197L19.1371 18.842C16.9341 21.0526 15.5722 24.102 15.5722 27.4695C15.5722 30.8685 16.9597 33.9434 19.1992 36.1588L17.3835 37.9811C14.6767 35.2999 13 31.5805 13 27.4695ZM18.7888 27.4696C18.7888 24.9925 19.789 22.7489 21.4075 21.1208L23.223 22.943C22.0719 24.1053 21.361 25.7043 21.361 27.4694C21.361 29.266 22.0976 30.8906 23.2852 32.0577L21.4694 33.8802C19.8145 32.2472 18.7888 29.9782 18.7888 27.4696ZM34.1625 21.1016L32.3461 22.9247C33.5079 24.0885 34.2263 25.695 34.2263 27.4694C34.2263 29.2753 33.4821 30.9074 32.2837 32.0757L34.1004 33.8992C35.7666 32.2648 36.8003 29.988 36.8003 27.4696C36.8003 24.9828 35.7922 22.7313 34.1625 21.1016ZM38.249 17L36.4325 18.8232C38.6466 21.0353 40.0162 24.0924 40.0162 27.4695C40.0162 30.878 38.6209 33.9607 36.3703 36.1774L38.1869 38.0007C40.9053 35.318 42.5902 31.5905 42.5902 27.4695C42.5902 23.38 40.931 19.678 38.249 17ZM27.7956 30.1658C29.2166 30.1658 30.3686 29.0138 30.3686 27.5928C30.3686 26.1717 29.2166 25.0197 27.7956 25.0197C26.3745 25.0197 25.2225 26.1717 25.2225 27.5928C25.2225 29.0138 26.3745 30.1658 27.7956 30.1658Z" fill="white"/>
</svg>
