<svg width="32" height="39" viewBox="0 0 32 39" fill="none" xmlns="http://www.w3.org/2000/svg">
<mask id="path-1-inside-1_610_59282" fill="white">
<path fill-rule="evenodd" clip-rule="evenodd" d="M22.8249 30.4755C28.2479 27.9142 32 22.3953 32 16C32 7.16344 24.8366 0 16 0C7.16344 0 0 7.16344 0 16C0 22.3955 3.75231 27.9145 9.1755 30.4757C11.7222 34.7642 14.7084 38.1533 16.0001 38.1533C17.2919 38.1533 20.2782 34.764 22.8249 30.4755Z"/>
</mask>
<path fill-rule="evenodd" clip-rule="evenodd" d="M22.8249 30.4755C28.2479 27.9142 32 22.3953 32 16C32 7.16344 24.8366 0 16 0C7.16344 0 0 7.16344 0 16C0 22.3955 3.75231 27.9145 9.1755 30.4757C11.7222 34.7642 14.7084 38.1533 16.0001 38.1533C17.2919 38.1533 20.2782 34.764 22.8249 30.4755Z" fill="#0F172A"/>
<path d="M22.8249 30.4755L21.7737 28.2498L21.0929 28.5713L20.7084 29.2187L22.8249 30.4755ZM9.1755 30.4757L11.292 29.2189L10.9075 28.5715L10.2267 28.2499L9.1755 30.4757ZM29.5385 16C29.5385 21.4077 26.368 26.0798 21.7737 28.2498L23.8762 32.7013C30.1277 29.7486 34.4615 23.3829 34.4615 16H29.5385ZM16 2.46154C23.4771 2.46154 29.5385 8.52291 29.5385 16H34.4615C34.4615 5.80397 26.196 -2.46154 16 -2.46154V2.46154ZM2.46154 16C2.46154 8.52291 8.52291 2.46154 16 2.46154V-2.46154C5.80397 -2.46154 -2.46154 5.80397 -2.46154 16H2.46154ZM10.2267 28.2499C5.63215 26.0801 2.46154 21.4078 2.46154 16H-2.46154C-2.46154 23.3831 1.87248 29.749 8.12432 32.7015L10.2267 28.2499ZM16.0001 35.6917C16.185 35.6917 16.3215 35.7214 16.3953 35.7419C16.4341 35.7526 16.4625 35.7627 16.4798 35.7694C16.4972 35.7761 16.5063 35.7805 16.5068 35.7807C16.5073 35.7809 16.5012 35.778 16.4884 35.7708C16.4756 35.7636 16.4576 35.7529 16.4342 35.738C16.3868 35.7076 16.3239 35.664 16.2455 35.6039C15.9143 35.3498 15.4566 34.9171 14.9004 34.2897C13.7978 33.0461 12.5035 31.259 11.292 29.2189L7.05903 31.7326C8.39417 33.9809 9.86633 36.0326 11.2165 37.5556C11.8867 38.3115 12.5768 38.9942 13.2485 39.5096C13.5847 39.7675 13.964 40.0207 14.3742 40.2179C14.7634 40.4049 15.3302 40.6148 16.0001 40.6148V35.6917ZM20.7084 29.2187C19.4969 31.2589 18.2026 33.046 17.1 34.2897C16.5438 34.9171 16.086 35.3497 15.7548 35.6038C15.6764 35.664 15.6135 35.7076 15.5661 35.738C15.5427 35.7529 15.5247 35.7636 15.5119 35.7708C15.4991 35.778 15.493 35.7809 15.4935 35.7807C15.494 35.7805 15.5031 35.7761 15.5205 35.7694C15.5378 35.7627 15.5662 35.7526 15.6049 35.7419C15.6788 35.7214 15.8153 35.6917 16.0001 35.6917V40.6148C16.6701 40.6148 17.237 40.4049 17.6261 40.2179C18.0363 40.0207 18.4157 39.7675 18.7518 39.5096C19.4235 38.9942 20.1137 38.3115 20.7839 37.5555C22.134 36.0325 23.6062 33.9807 24.9414 31.7324L20.7084 29.2187Z" fill="white" mask="url(#path-1-inside-1_610_59282)"/>
</svg>
