<svg width="24" height="24" viewBox="0 0 24 24" fill="none" xmlns="http://www.w3.org/2000/svg">
<path fill-rule="evenodd" clip-rule="evenodd" d="M16.9385 4C17.4979 4 18.017 4.29688 18.3188 4.76794L18.3955 4.90064L20 9C20.7494 9.37288 21.8739 10.4041 21.9902 11.3239L22 11.476V18C22 19 21.2521 20 20 20C19.2143 20 18.5776 19.4095 18.0897 18.2284L18 18H6C5.50146 19.3333 4.8348 20 4 20C2.80472 20 2.06902 19.0888 2.00461 18.1363L2 18V11.476C2 10.6368 3.10757 9.54717 3.87542 9.07315L4 9L5.59214 4.92298C5.8642 4.40084 6.35971 4.0604 6.91053 4.00728L7.062 4H16.9385ZM20 12H4V17.605L4.06815 17.4495L4.12667 17.2996L4.61257 16H19.3874L19.8733 17.2995L19.9318 17.4494L20 17.608V12ZM8 13C8.55228 13 9 13.4477 9 14C9 14.5523 8.55228 15 8 15H7C6.44772 15 6 14.5523 6 14C6 13.4477 6.44772 13 7 13H8ZM17 13C17.5523 13 18 13.4477 18 14C18 14.5523 17.5523 15 17 15H16C15.4477 15 15 14.5523 15 14C15 13.4477 15.4477 13 16 13H17ZM16.678 6H7.318L5.755 10H18.243L16.678 6Z" fill="#6366F1"/>
</svg>
