<svg width="24" height="24" viewBox="0 0 24 24" fill="none" xmlns="http://www.w3.org/2000/svg">
<g clip-path="url(#clip0_1036_9875)">
<path d="M12 4C12.7403 4 13.3866 4.40217 13.7324 4.99993L17.382 5C18.0854 5 18.7328 5.36904 19.0929 5.96426L19.1708 6.10557L21.1217 10.0073C21.6166 10.0674 22 10.4889 22 11V17C22 17.5523 21.5523 18 21 18L19.829 18.0009C19.4169 19.1656 18.3059 20 17 20C15.6941 20 14.5831 19.1656 14.171 18.0009H10.829C10.4169 19.1656 9.30588 20 8 20C6.69412 20 5.58311 19.1656 5.17102 18.0009L4 18C2.89543 18 2 17.1046 2 16V6C2 4.89543 2.89543 4 4 4H12ZM8 16C7.44772 16 7 16.4477 7 17C7 17.5523 7.44772 18 8 18C8.55228 18 9 17.5523 9 17C9 16.4477 8.55228 16 8 16ZM17 16C16.4477 16 16 16.4477 16 17C16 17.5523 16.4477 18 17 18C17.5523 18 18 17.5523 18 17C18 16.4477 17.5523 16 17 16ZM12 6H4V16L5.17067 16.0001C5.58249 14.8349 6.69375 14 8 14C9.30625 14 10.4175 14.8349 10.8293 16.0001L12 16V6ZM20 12H14V16L14.1707 16.0001C14.5825 14.8349 15.6937 14 17 14C18.3063 14 19.4175 14.8349 19.8293 16.0001L20 16V12ZM17.382 7H14V10H18.881L17.382 7Z" fill="#1B1F26"/>
</g>
<defs>
<clipPath id="clip0_1036_9875">
<rect width="24" height="24" fill="white"/>
</clipPath>
</defs>
</svg>
