<svg width="24" height="24" viewBox="0 0 24 24" fill="none" xmlns="http://www.w3.org/2000/svg">
<g clip-path="url(#clip0_640_5890)">
<path fill-rule="evenodd" clip-rule="evenodd" d="M9.6129 8.2097L9.70711 8.29289L12 10.585L14.2929 8.29289C14.6834 7.90237 15.3166 7.90237 15.7071 8.29289C16.0676 8.65338 16.0953 9.22061 15.7903 9.6129L15.7071 9.70711L13.415 12L15.7071 14.2929C16.0976 14.6834 16.0976 15.3166 15.7071 15.7071C15.3466 16.0676 14.7794 16.0953 14.3871 15.7903L14.2929 15.7071L12 13.415L9.70711 15.7071C9.31658 16.0976 8.68342 16.0976 8.29289 15.7071C7.93241 15.3466 7.90468 14.7794 8.2097 14.3871L8.29289 14.2929L10.585 12L8.29289 9.70711C7.90237 9.31658 7.90237 8.68342 8.29289 8.29289C8.65338 7.93241 9.22061 7.90468 9.6129 8.2097Z" fill="#1B1F26"/>
</g>
<defs>
<clipPath id="clip0_640_5890">
<rect width="24" height="24" fill="white"/>
</clipPath>
</defs>
</svg>
