<svg width="24" height="24" viewBox="0 0 24 24" fill="none" xmlns="http://www.w3.org/2000/svg">
<path fill-rule="evenodd" clip-rule="evenodd" d="M3 9C2.44772 9 2 8.55228 2 8C2 7.44772 2.44772 7 3 7H21C21.5523 7 22 7.44772 22 8C22 8.55228 21.5523 9 21 9H19V21C19 21.5128 18.614 21.9355 18.1166 21.9933L18 22H6C5.48716 22 5.06449 21.614 5.00673 21.1166L5 21V9H3ZM7 9V20H17V9H7ZM14 2C15.6563 2 17 3.34371 17 5V6H15V5C15 4.44828 14.5517 4 14 4H10C9.4483 4 9 4.44828 9 5V6H7V5C7 3.34371 8.3437 2 10 2H14Z" fill="#1B1F26"/>
</svg>
