<svg width="24" height="24" viewBox="0 0 24 24" fill="none" xmlns="http://www.w3.org/2000/svg">
<path fill-rule="evenodd" clip-rule="evenodd" d="M17.597 2.3004C17.1965 1.89987 16.5471 1.89987 16.1466 2.3004L2.3004 16.1466C2.10806 16.3389 2 16.5998 2 16.8718V20.9744C2 21.5408 2.4592 22 3.02564 22H7.12822C7.40022 22 7.66114 21.8919 7.85345 21.6996L21.6996 7.85344C22.1001 7.45292 22.1001 6.80349 21.6996 6.40297L17.597 2.3004ZM4.05128 17.2966L13.3111 8.03682L15.9632 10.6889L6.7034 19.9487H4.05128V17.2966ZM17.4137 9.23846L14.7616 6.58636L16.8718 4.4761L19.5239 7.12821L17.4137 9.23846Z" fill="#1B1F26"/>
</svg>
