<svg width="24" height="24" viewBox="0 0 24 24" fill="none" xmlns="http://www.w3.org/2000/svg">
<g clip-path="url(#clip0_640_5470)">
<path fill-rule="evenodd" clip-rule="evenodd" d="M14 2C15.1046 2 16 2.89543 16 4L16.001 11C17.6545 11.0005 19 12.3463 19 14V16.5C19 16.776 19.225 17 19.5 17C19.775 17 20 16.776 20 16.5V9.944L19.896 9.84C19.115 9.059 18.652 8.035 18.533 6.948L17.293 5.707C16.902 5.316 16.902 4.684 17.293 4.293C17.684 3.902 18.316 3.902 18.707 4.293L21.707 7.293C21.895 7.48 22 7.735 22 8V16.5C22 17.878 20.879 19 19.5 19C18.121 19 17 17.878 17 16.5V14C17 13.449 16.552 13 16 13V12.999V21C16 21.5523 15.5523 22 15 22H3C2.44772 22 2 21.5523 2 21V4C2 2.89543 2.89543 2 4 2H14ZM14 4H4V20H14V4ZM12 6V10H6V6H12Z" fill="#1B1F26"/>
</g>
<defs>
<clipPath id="clip0_640_5470">
<rect width="24" height="24" fill="white"/>
</clipPath>
</defs>
</svg>
