<svg width="25" height="24" viewBox="0 0 25 24" fill="none" xmlns="http://www.w3.org/2000/svg">
<g clip-path="url(#clip0_610_57866)">
<path fill-rule="evenodd" clip-rule="evenodd" d="M12.5 2C18.0228 2 22.5 6.47715 22.5 12C22.5 17.5229 18.0228 22 12.5 22C6.97715 22 2.5 17.5229 2.5 12C2.5 6.47715 6.97715 2 12.5 2ZM12.5 4C8.08172 4 4.5 7.58172 4.5 12C4.5 16.4183 8.08172 20 12.5 20C16.9183 20 20.5 16.4183 20.5 12C20.5 7.58172 16.9183 4 12.5 4ZM12.5019 15.1064C12.9146 15.1064 13.2651 15.2479 13.5534 15.5305C13.8418 15.8131 13.986 16.1539 13.986 16.5532C13.986 16.9525 13.8418 17.2936 13.5534 17.5762C13.2651 17.8588 12.9146 18 12.5019 18C12.0945 18 11.7466 17.8588 11.4582 17.5762C11.1698 17.2936 11.0257 16.9525 11.0257 16.5532C11.0257 16.1539 11.1698 15.8131 11.4582 15.5305C11.7466 15.2479 12.0945 15.1064 12.5019 15.1064ZM12.4921 6C12.746 6 12.9934 6.06864 13.2341 6.20605C13.4749 6.34346 13.6627 6.52886 13.7976 6.76221C13.9325 6.99555 14 7.24195 14 7.50122C14 7.70345 13.9735 7.96274 13.9206 8.27905C13.6614 9.78282 13.4868 10.9289 13.3968 11.717C13.346 12.19 13.3122 12.7143 13.2952 13.29L13.2857 13.7314H11.746C11.6679 12.5827 11.6033 11.7895 11.5522 11.3521L11.5397 11.2502L11.0476 8.1001C11.0159 7.84602 11 7.64116 11 7.4856C11 7.22633 11.0675 6.98124 11.2024 6.75049C11.3373 6.51974 11.5225 6.33697 11.7579 6.20215C11.9934 6.06733 12.2381 6 12.4921 6Z" fill="#F5C545"/>
</g>
<defs>
<clipPath id="clip0_610_57866">
<rect width="24" height="24" fill="white" transform="translate(0.5)"/>
</clipPath>
</defs>
</svg>
