<svg width="24" height="24" viewBox="0 0 24 24" fill="none" xmlns="http://www.w3.org/2000/svg">
<g clip-path="url(#clip0_1033_9588)">
<path fill-rule="evenodd" clip-rule="evenodd" d="M13 4H6C4.34315 4 3 5.34315 3 7V17C3 18.6569 4.34315 20 6 20H13C13.5523 20 14 19.5523 14 19C14 18.4477 13.5523 18 13 18H6C5.44772 18 5 17.5523 5 17V7C5 6.44772 5.44772 6 6 6H13C13.5523 6 14 5.55228 14 5C14 4.44772 13.5523 4 13 4ZM16.0475 8.02632C16.438 7.6358 17.0712 7.6358 17.4617 8.02632L20.7038 11.2684C20.8669 11.4315 20.9618 11.6369 20.9887 11.8493C20.9961 11.8984 21 11.9488 21 12C21 12.0487 20.9965 12.0965 20.9898 12.1433C20.9736 12.3755 20.8768 12.603 20.6993 12.7805L17.4573 16.0226C17.0668 16.4131 16.4336 16.4131 16.0431 16.0226C15.6526 15.632 15.6526 14.9989 16.0431 14.6084L17.6514 13H12C11.4477 13 11 12.5523 11 12C11 11.4477 11.4477 11 12 11H17.607L16.0475 9.44053C15.657 9.05001 15.657 8.41684 16.0475 8.02632Z" fill="#1B1F26"/>
</g>
<defs>
<clipPath id="clip0_1033_9588">
<rect width="24" height="24" fill="white"/>
</clipPath>
</defs>
</svg>
