<svg width="24" height="24" viewBox="0 0 24 24" fill="none" xmlns="http://www.w3.org/2000/svg">
<path fill-rule="evenodd" clip-rule="evenodd" d="M12 2C16.4183 2 20 5.58172 20 10C20 12.41 18.2149 15.5258 14.6446 19.3476L14.0331 19.9911L13.3884 20.6476L12.7107 21.3173C12.4793 21.5427 12.2424 21.7703 12 22C11.7576 21.7703 11.5207 21.5427 11.2893 21.3173L10.6116 20.6476L9.96694 19.9911L9.35537 19.3476C5.78512 15.5258 4 12.41 4 10C4 5.58172 7.58172 2 12 2ZM12 4C8.68629 4 6 6.68629 6 10C6 11.9713 7.89798 15.0423 11.7832 18.9881L12 19.206L12.2168 18.9881C16.0024 15.1434 17.9014 12.1293 17.9963 10.1538L18 10C18 6.68629 15.3137 4 12 4ZM12 8C13.1046 8 14 8.89543 14 10C14 11.1046 13.1046 12 12 12C10.8954 12 10 11.1046 10 10C10 8.89543 10.8954 8 12 8Z" fill="#1B1F26"/>
</svg>
