<svg width="24" height="24" viewBox="0 0 24 24" fill="none" xmlns="http://www.w3.org/2000/svg">
<g clip-path="url(#clip0_646_13442)">
<path d="M9.02894 6.72534C8.47714 6.72534 8.04731 7.1891 8.04731 7.73917V13.937C8.04731 14.4871 8.47714 14.9508 9.02894 14.9508C9.58074 14.9508 10.0106 14.4871 10.0106 13.937V7.73917C10.0106 7.1891 9.58074 6.72534 9.02894 6.72534Z" fill="#1B1F26"/>
<path d="M14.9692 9.04952C14.4174 9.04952 13.9875 9.51327 13.9875 10.0633V16.2612C13.9875 16.8112 14.4174 17.275 14.9692 17.275C15.521 17.275 15.9508 16.8112 15.9508 16.2612V10.0633C15.9508 9.51327 15.521 9.04952 14.9692 9.04952Z" fill="#1B1F26"/>
<path fill-rule="evenodd" clip-rule="evenodd" d="M21.1485 3.86552C21.1485 3.15297 20.44 2.63856 19.7768 2.93516L14.9446 5.09591L9.37676 2.91746C9.13783 2.82398 8.87309 2.8304 8.63884 2.93517L3.44113 5.25932C3.07803 5.4217 2.84961 5.79001 2.84961 6.18972V20.1348C2.84961 20.8961 3.65162 21.4126 4.32208 21.0128L9.0601 18.1879L14.5265 21.0397C14.7865 21.1754 15.0917 21.1848 15.3593 21.0651L20.557 18.7409C20.92 18.5786 21.1485 18.2103 21.1485 17.8106V3.86552ZM4.81287 6.85557L9.05352 4.95932L14.6213 7.13776C14.8603 7.23127 15.125 7.22478 15.3593 7.12004L19.1852 5.40926V17.1447L15.0012 19.0156L9.47159 16.131C9.17576 15.9766 8.82469 15.9871 8.53813 16.1578L4.81287 18.3788V6.85557Z" fill="#1B1F26"/>
</g>
<defs>
<clipPath id="clip0_646_13442">
<rect width="24" height="24" fill="white"/>
</clipPath>
</defs>
</svg>
