<svg width="20" height="18" viewBox="0 0 20 18" fill="none" xmlns="http://www.w3.org/2000/svg">
<path fill-rule="evenodd" clip-rule="evenodd" d="M10 0C15.5224 0 19.9998 4.53601 19.9998 10.1308L19.9945 10.3758C19.9857 10.6083 19.9658 10.9118 19.935 11.2862C19.6482 13.8282 18.4226 16.1461 16.5097 17.8117C16.3045 17.9903 16.0218 18.0467 15.7651 17.96C13.8983 17.3296 11.9636 17.0025 10 17.0025C8.03604 17.0025 6.10207 17.3294 4.23403 17.96C3.97742 18.0467 3.69468 17.9903 3.48952 17.8117C1.57743 16.1469 0.352362 13.8299 0.0652366 11.2885L0.0332839 10.8721C0.0110946 10.5537 0 10.3066 0 10.1308C0.00601939 4.53578 4.47703 0 10 0ZM10.9998 2.06295L10.9998 3C10.9998 3.55228 10.5521 4 9.99981 4C9.44752 4 8.99981 3.55228 8.99981 3L8.99941 2.06307C5.42381 2.51707 2.57659 5.37237 2.07766 9.00047L2.99981 9C3.55209 9 3.99981 9.44772 3.99981 10C3.99981 10.5523 3.55209 11 2.99981 11L2.04749 10.9997C2.04915 11.0209 2.05085 11.0423 2.05259 11.0639C2.24628 12.7783 2.97121 14.3692 4.11556 15.6302L4.31281 15.838L4.64215 15.742C6.22134 15.3006 7.8329 15.0547 9.45787 15.01L10 15.0025C11.8083 15.0025 13.6035 15.2517 15.3576 15.742L15.6858 15.839L15.8839 15.6301C16.9573 14.4485 17.661 12.9828 17.9001 11.4329L17.9417 11.1218L17.95 11H16.9998C16.4475 11 15.9998 10.5523 15.9998 10C15.9998 9.44772 16.4475 9 16.9998 9L17.9231 9.00024C17.4269 5.37304 14.5771 2.51666 10.9998 2.06295ZM10.3765 6.92118C10.5166 7.47723 10.6805 8.1362 10.8402 8.79912L10.9588 9.2955C11.2706 10.6129 11.538 11.8471 11.538 12.2063C11.538 13.0666 10.8488 13.7649 9.99961 13.7649C9.1504 13.7649 8.46118 13.0666 8.46118 12.2063C8.46118 11.6226 9.16732 8.72835 9.6227 6.92118C9.7227 6.52452 10.2765 6.52452 10.3765 6.92118Z" fill="#1B1F26"/>
</svg>
