<svg width="24" height="24" viewBox="0 0 24 24" fill="none" xmlns="http://www.w3.org/2000/svg">
<g clip-path="url(#clip0_637_4154)">
<path d="M2.23178 2.35984C2.58534 1.93556 3.21591 1.87824 3.64019 2.2318L9.64018 7.2318C9.86818 7.4218 10 7.70325 10 8.00002V13H12V10C12 9.44774 12.4477 9.00002 13 9.00002H17.1716C17.702 9.00002 18.2107 9.21074 18.5858 9.58581L21.4142 12.4142C21.7893 12.7893 22 13.298 22 13.8285V17C22 18.1046 21.1046 19 20 19L19.9949 19.1763C19.9037 20.7511 18.5977 22 17 22C15.4023 22 14.0963 20.7511 14.0051 19.1763L14 19H10C10 20.6569 8.65686 22 7 22C5.34315 22 4 20.6569 4 19C4 18.9432 4.00158 18.8867 4.0047 18.8307C2.89004 18.4393 2.07642 17.4073 2.00509 16.1763L2 16V14C2 13.4872 2.38604 13.0645 2.88338 13.0068L3 13H8V8.4684L3.99998 5.135L4 9.00002C4 9.51286 3.61396 9.93553 3.11662 9.9933L3 10C2.44772 10 2 9.55231 2 9.00002V3.00003C1.99973 2.77451 2.07574 2.54709 2.23178 2.35984ZM7 18C6.44772 18 6 18.4477 6 19C6 19.5523 6.44772 20 7 20C7.55229 20 8 19.5523 8 19C8 18.4477 7.55229 18 7 18ZM17 18C16.4477 18 16 18.4477 16 19C16 19.5523 16.4477 20 17 20C17.5523 20 18 19.5523 18 19C18 18.4477 17.5523 18 17 18ZM12 15H4V16C4 16.479 4.33674 16.8793 4.78639 16.9772C5.33434 16.3761 6.12325 16 7 16C7.88855 16 8.68687 16.3863 9.2362 17.0001L12 17V15ZM17.1716 11H14V17L14.7647 16.9991C15.314 16.3859 16.1119 16 17 16C17.8881 16 18.686 16.3859 19.2353 16.9991L20 17V13.8285L17.1716 11Z" fill="#155E75"/>
</g>
<defs>
<clipPath id="clip0_637_4154">
<rect width="24" height="24" fill="white"/>
</clipPath>
</defs>
</svg>
