<svg width="24" height="24" viewBox="0 0 24 24" fill="none" xmlns="http://www.w3.org/2000/svg">
<g clip-path="url(#clip0_1392_9984)">
<path d="M21.577 10L21.027 8.174H18.464L17.914 10H16.22L18.75 2.322H20.818L23.315 10H21.577ZM19.762 3.84H19.707L18.86 6.755H20.62L19.762 3.84Z" fill="#929BAD"/>
<path d="M16.462 21.515H17.144L17.771 20.536C17.859 20.3967 17.9543 20.2867 18.057 20.206C18.167 20.1253 18.321 20.0667 18.519 20.03V19.964C17.9543 19.9053 17.4997 19.6853 17.155 19.304C16.8177 18.9227 16.649 18.413 16.649 17.775C16.649 17.4083 16.704 17.0747 16.814 16.774C16.924 16.4733 17.078 16.2167 17.276 16.004C17.4813 15.784 17.727 15.6153 18.013 15.498C18.299 15.3807 18.618 15.322 18.97 15.322H22.611V23H20.939V20.184H19.927L18.64 22.197C18.5373 22.3657 18.4347 22.5013 18.332 22.604C18.2367 22.7067 18.134 22.7873 18.024 22.846C17.914 22.9047 17.7967 22.945 17.672 22.967C17.5547 22.989 17.4227 23 17.276 23H16.462V21.515ZM20.939 18.776V16.774H19.179C18.9297 16.774 18.7317 16.84 18.585 16.972C18.4457 17.0967 18.376 17.2837 18.376 17.533V18.006C18.376 18.2627 18.4457 18.457 18.585 18.589C18.7317 18.7137 18.9297 18.776 19.179 18.776H20.939Z" fill="#929BAD"/>
<path d="M7.315 20.1435V1.00016H5.64833V20.1435L1.17833 15.6735L0 16.8518L6.48167 23.3335L12.9633 16.8518L11.785 15.6735L7.315 20.1435Z" fill="#929BAD"/>
</g>
<defs>
<clipPath id="clip0_1392_9984">
<rect width="24" height="24" fill="white"/>
</clipPath>
</defs>
</svg>
