<svg width="24" height="24" viewBox="0 0 24 24" fill="none" xmlns="http://www.w3.org/2000/svg">
<g clip-path="url(#clip0_640_5471)">
<path fill-rule="evenodd" clip-rule="evenodd" d="M12 4C16.9706 4 21 8.02944 21 13C21 17.9706 16.9706 22 12 22C7.02944 22 3 17.9706 3 13C3 8.02944 7.02944 4 12 4ZM12 6C8.13401 6 5 9.13401 5 13C5 16.866 8.13401 20 12 20C15.866 20 19 16.866 19 13C19 9.13401 15.866 6 12 6ZM12 8C12.5128 8 12.9355 8.38604 12.9933 8.88338L13 9V12.585L15.7071 15.2929C16.0676 15.6534 16.0953 16.2206 15.7903 16.6129L15.7071 16.7071C15.3466 17.0676 14.7794 17.0953 14.3871 16.7903L14.2929 16.7071L11.2929 13.7071C11.1366 13.5508 11.0374 13.3481 11.0087 13.1314L11 13V9C11 8.44772 11.4477 8 12 8ZM19.6129 3.2097L19.7071 3.29289L20.7071 4.29289C21.0976 4.68342 21.0976 5.31658 20.7071 5.70711C20.3466 6.06759 19.7794 6.09532 19.3871 5.7903L19.2929 5.70711L18.2929 4.70711C17.9024 4.31658 17.9024 3.68342 18.2929 3.29289C18.6534 2.93241 19.2206 2.90468 19.6129 3.2097ZM15 2C15.5523 2 16 2.44772 16 3C16 3.55228 15.5523 4 15 4H9C8.44772 4 8 3.55228 8 3C8 2.44772 8.44772 2 9 2H15Z" fill="#1B1F26"/>
</g>
<defs>
<clipPath id="clip0_640_5471">
<rect width="24" height="24" fill="white"/>
</clipPath>
</defs>
</svg>
