<svg width="24" height="24" viewBox="0 0 24 24" fill="none" xmlns="http://www.w3.org/2000/svg">
<g clip-path="url(#clip0_640_5472)">
<path fill-rule="evenodd" clip-rule="evenodd" d="M19 2C20.6569 2 22 3.34315 22 5C22 6.30588 21.1656 7.41689 20.0009 7.82898L20 13H13L13.0009 16.171C14.1128 16.5644 14.9237 17.5949 14.9949 18.8237L15 19C15 20.6569 13.6569 22 12 22C10.3431 22 9 20.6569 9 19C9 17.6937 9.83485 16.5825 11.0001 16.1707L11 13H6L6.0009 16.171C7.11285 16.5644 7.92371 17.5949 7.99491 18.8237L8 19C8 20.6569 6.65685 22 5 22C3.34315 22 2 20.6569 2 19C2 17.6937 2.83485 16.5825 4.00009 16.1707V7.82933C2.83485 7.41751 2 6.30625 2 5C2 3.34315 3.34315 2 5 2C6.65685 2 8 3.34315 8 5C8 6.30588 7.16562 7.41689 6.0009 7.82898L6 11H11L11.0001 7.82933C9.88764 7.43617 9.07632 6.4055 9.00509 5.17627L9 5C9 3.34315 10.3431 2 12 2C13.6569 2 15 3.34315 15 5C15 6.30588 14.1656 7.41689 13.0009 7.82898L13 11H18L18.0001 7.82933C16.8876 7.43617 16.0763 6.4055 16.0051 5.17627L16 5C16 3.34315 17.3431 2 19 2ZM6 18H4V20H6V18ZM13 18H11V20H13V18ZM6 4H4V6H6V4ZM13 4H11V6H13V4ZM20 4H18V6H20V4Z" fill="#1B1F26"/>
</g>
<defs>
<clipPath id="clip0_640_5472">
<rect width="24" height="24" fill="white"/>
</clipPath>
</defs>
</svg>
